<svg aria-hidden="true" style="position: absolute; width: 0; height: 0; overflow: hidden;" version="1.1" xmlns="http://www.w3.org/2000/svg" xmlns:xlink="http://www.w3.org/1999/xlink">
<defs>
<symbol id="icon-Group-1" viewBox="0 0 27 32">
<path  d="M9.309 30.502c-4.44-0.026-8.112-9.088-8.112-13.704 0-7.539 5.656-9.19 7.835-9.19 0.982 0 2.032 0.386 2.957 0.728 0.646 0.238 1.315 0.483 1.688 0.483 0.224 0 0.747-0.208 1.211-0.392 0.989-0.394 2.218-0.883 3.65-0.883h0.008c1.070 0 4.312 0.235 6.262 3.163l0.456 0.685-0.656 0.496c-0.941 0.709-2.653 2-2.653 4.56 0 3.032 1.939 4.198 2.872 4.758 0.411 0.248 0.837 0.502 0.837 1.061 0 0.365-2.909 8.189-7.131 8.189-1.034 0-1.765-0.31-2.41-0.584-0.651-0.277-1.214-0.517-2.144-0.517-0.47 0-1.066 0.224-1.696 0.459-0.864 0.322-1.838 0.688-2.944 0.688h-0.030zM18.986 0.672c0.11 3.968-2.726 6.72-5.562 6.544-0.464-3.162 2.834-6.544 5.562-6.544z"></path>
</symbol>
<symbol id="icon-Ellipse-9-1" viewBox="0 0 30 32">
<path fill="#e0e8e6" style="fill: var(--color1, #e0e8e6)" d="M30.426 4.946c-3.211-2.939-7.506-4.74-12.221-4.74-10.011 0-18.127 8.116-18.127 18.127 0 5.289 2.265 10.050 5.879 13.363l0.013 0.012 0.43-0.47c-3.503-3.209-5.692-7.805-5.692-12.912 0-9.66 7.831-17.49 17.49-17.49 4.553 0 8.7 1.74 11.812 4.591l-0.013-0.012 0.43-0.47z"></path>
</symbol>
<symbol id="icon-Group-2-1" viewBox="0 0 27 32">
<path fill="#a6d864" style="fill: var(--color1, #a6d864)" d="M16.908 31.382c1.046 0 1.959-0.91 1.959-1.953v-4.563h1.307c0.785 0 1.308-0.522 1.308-1.305v-13.032h-15.683v13.032c0 0.783 0.523 1.305 1.308 1.305h1.308v4.563c0 1.044 0.912 1.954 1.959 1.954 1.046 0 1.958-0.91 1.958-1.954v-4.563h2.616v4.563c0 1.044 0.912 1.953 1.959 1.953zM24.75 23.562c1.046 0 1.959-0.91 1.959-1.954v-9.126c0-1.038-0.913-1.953-1.959-1.953s-1.959 0.914-1.959 1.953v9.126c0 1.044 0.912 1.954 1.959 1.954zM2.533 23.562c1.046 0 1.959-0.91 1.959-1.954v-9.126c0-1.038-0.912-1.953-1.959-1.953s-1.959 0.914-1.959 1.953v9.126c0.001 1.044 0.913 1.954 1.959 1.954zM19.913 0.366c-0.115-0.121-0.276-0.197-0.456-0.197s-0.341 0.075-0.456 0.196l-0 0-1.835 1.825c-1.040-0.52-2.207-0.779-3.506-0.782h-0.039c-1.298 0.003-2.465 0.262-3.505 0.782l-0.081-0.081-1.754-1.744c-0.115-0.121-0.277-0.197-0.456-0.197s-0.342 0.076-0.456 0.197l-0 0c-0.261 0.261-0.261 0.648 0 0.909l1.697 1.693c-0.562 0.379-1.047 0.815-1.465 1.309l-0.009 0.010c-1.032 1.223-1.69 2.792-1.78 4.511l-0.001 0.019-0.004 0.054c-0.005 0.118-0.008 0.235-0.008 0.353h15.683c0-0.118-0.003-0.236-0.009-0.353 0-0.018-0.003-0.036-0.003-0.054-0.091-1.738-0.749-3.306-1.79-4.54l0.009 0.011c-0.431-0.509-0.927-0.955-1.474-1.319l1.697-1.693c0.261-0.261 0.261-0.648 0-0.909zM10.373 6.946c-0.541 0-0.98-0.438-0.98-0.977s0.438-0.978 0.98-0.978 0.98 0.438 0.98 0.978c0 0.539-0.438 0.977-0.98 0.977zM16.911 6.946c-0.541 0-0.98-0.438-0.98-0.977s0.438-0.978 0.98-0.978c0.541 0 0.98 0.438 0.98 0.978s-0.439 0.977-0.98 0.977z"></path>
</symbol>
<symbol id="icon-Vector-1" viewBox="0 0 32 32">
<path d="M16.368 0.368c-0.56 0-1.118 0.030-1.675 0.090-0.69 0.074-1.302 0.181-1.9 0.325l0.101-0.020c-3.317 0.77-6.148 2.509-8.259 4.9l-0.015 0.017c-5.669 6.491-4.989 16.336 1.52 21.991 6.231 5.413 15.61 5.053 21.405-0.823 2.752-2.801 4.451-6.645 4.451-10.886 0-0.002 0-0.005 0-0.007v0c0-8.609-6.997-15.586-15.628-15.586zM5.887 5.842c0.082-0.085 0.168-0.166 0.251-0.25 0.097-0.094 0.194-0.19 0.293-0.282 0.087-0.081 0.176-0.159 0.265-0.238 0.101-0.089 0.201-0.178 0.304-0.264 0.090-0.077 0.183-0.15 0.276-0.223 0.173-0.142 0.37-0.291 0.572-0.433l0.032-0.022c0.107-0.077 0.215-0.156 0.325-0.228 0.25-0.172 0.558-0.364 0.873-0.544l0.069-0.037c0.134-0.081 0.35-0.198 0.568-0.312l0.091-0.043c0.134-0.072 0.357-0.18 0.583-0.281l0.096-0.039 0.371-0.156c0.108-0.044 0.215-0.087 0.324-0.129 0.126-0.047 0.254-0.092 0.381-0.137 0.109-0.038 0.219-0.076 0.328-0.112 0.13-0.041 0.261-0.080 0.393-0.117 0.109-0.032 0.219-0.065 0.329-0.094 0.042-0.011 0.084-0.020 0.126-0.031-1.502 1.455-2.649 3.268-3.304 5.302l-0.025 0.091c-1.364-0.364-2.55-0.832-3.665-1.417l0.096 0.046c0.017-0.018 0.031-0.037 0.047-0.052zM5.138 6.679c1.133 0.626 2.447 1.162 3.826 1.539l0.127 0.030c-0.643 2.148-1.026 4.618-1.051 7.174l-0 0.014h-6.246c0.123-3.352 1.366-6.392 3.363-8.78l-0.019 0.023zM5.138 25.232c-1.979-2.365-3.221-5.405-3.344-8.731l-0.001-0.026h6.246c0.023 2.432 0.378 4.85 1.051 7.188-1.506 0.407-2.82 0.942-4.047 1.616l0.094-0.047zM12.609 30.011c-0.105-0.027-0.214-0.061-0.322-0.093-0.132-0.038-0.264-0.076-0.394-0.119-0.109-0.035-0.219-0.073-0.326-0.111-0.324-0.11-0.558-0.199-0.788-0.296l0.082 0.031-0.372-0.156c-0.366-0.161-0.59-0.268-0.812-0.378l0.13 0.058c-0.523-0.263-0.951-0.51-1.364-0.777l0.057 0.034c-0.098-0.063-0.197-0.127-0.295-0.193-0.158-0.106-0.265-0.182-0.371-0.259l0.042 0.029c-0.235-0.165-0.431-0.315-0.622-0.471l0.019 0.015c-0.092-0.073-0.184-0.147-0.274-0.222-0.105-0.086-0.205-0.176-0.306-0.265-0.089-0.078-0.178-0.156-0.265-0.236-0.099-0.093-0.195-0.189-0.293-0.284-0.083-0.083-0.169-0.164-0.251-0.249-0.016-0.016-0.030-0.033-0.045-0.048 1.136-0.585 2.333-1.045 3.569-1.371 0.681 2.124 1.827 3.937 3.325 5.389l0.003 0.003-0.127-0.031zM15.847 30.463c-2.229-0.317-4.183-2.637-5.413-6.064 1.616-0.377 3.48-0.608 5.393-0.635l0.020-0v6.698zM15.847 22.725c-1.933 0.026-3.856 0.254-5.74 0.683-0.624-2.070-0.997-4.452-1.025-6.917l-0-0.016h6.765v6.249zM15.847 15.436h-6.765c0.029-2.48 0.402-4.862 1.072-7.116l-0.047 0.183c1.883 0.428 3.807 0.657 5.74 0.683v6.249zM15.847 8.147c-1.933-0.028-3.796-0.258-5.591-0.67l0.178 0.034c1.229-3.426 3.184-5.747 5.413-6.063v6.698zM27.597 6.679c1.979 2.365 3.221 5.405 3.344 8.731l0.001 0.026h-6.247c-0.026-2.57-0.408-5.041-1.1-7.379l0.048 0.19c1.506-0.407 2.82-0.943 4.047-1.616l-0.094 0.047zM20.122 1.901c0.109 0.027 0.219 0.061 0.327 0.093 0.132 0.038 0.264 0.077 0.394 0.119 0.109 0.035 0.219 0.073 0.327 0.112 0.324 0.11 0.557 0.199 0.787 0.296l-0.082-0.031c0.321 0.128 0.548 0.229 0.772 0.336l-0.082-0.035c0.121 0.057 0.242 0.115 0.364 0.176 0.523 0.263 0.951 0.51 1.364 0.778l-0.057-0.035c0.099 0.062 0.197 0.126 0.295 0.192 0.111 0.075 0.22 0.152 0.329 0.23 0.237 0.168 0.434 0.318 0.625 0.473l-0.022-0.017c0.092 0.073 0.184 0.146 0.275 0.222 0.104 0.086 0.204 0.176 0.305 0.265 0.089 0.078 0.178 0.156 0.265 0.236 0.099 0.093 0.195 0.189 0.293 0.284 0.084 0.083 0.169 0.164 0.251 0.249 0.016 0.016 0.030 0.033 0.045 0.048-1.020 0.539-2.206 1.008-3.447 1.343l-0.123 0.028c-0.682-2.124-1.83-3.937-3.329-5.388l-0.003-0.003c0.041 0.011 0.084 0.020 0.126 0.031zM16.889 1.449c2.228 0.316 4.183 2.636 5.412 6.063-1.616 0.377-3.48 0.607-5.392 0.635l-0.020 0v-6.698zM16.889 9.186c2.048-0.028 4.025-0.275 5.925-0.72l-0.186 0.037c0.624 2.070 0.997 4.452 1.025 6.917l0 0.016h-6.765v-6.249zM16.889 16.475h6.765c-0.029 2.48-0.402 4.862-1.073 7.116l0.047-0.183c-1.715-0.408-3.691-0.655-5.72-0.683l-0.019-0v-6.249zM16.889 30.462v-6.698c1.821 0.025 3.635 0.238 5.412 0.635-1.229 3.426-3.184 5.747-5.412 6.063zM26.848 26.068c-0.082 0.086-0.167 0.167-0.251 0.25-0.097 0.095-0.194 0.191-0.293 0.283-0.087 0.080-0.176 0.156-0.265 0.236-0.101 0.090-0.201 0.18-0.304 0.265-0.091 0.076-0.184 0.148-0.277 0.222-0.173 0.142-0.37 0.291-0.572 0.433l-0.032 0.021c-0.107 0.077-0.215 0.156-0.325 0.228-0.098 0.066-0.197 0.13-0.298 0.194-0.112 0.071-0.223 0.14-0.337 0.208-0.104 0.061-0.203 0.12-0.306 0.179-0.251 0.148-0.585 0.324-0.926 0.488l-0.093 0.041c-0.105 0.049-0.212 0.098-0.32 0.145l-0.37 0.156c-0.108 0.044-0.215 0.087-0.324 0.128-0.127 0.048-0.254 0.094-0.382 0.138-0.109 0.037-0.217 0.076-0.327 0.111-0.13 0.042-0.261 0.081-0.393 0.119-0.109 0.032-0.219 0.065-0.328 0.094l-0.127 0.031c1.502-1.455 2.649-3.268 3.304-5.301l0.025-0.091c1.364 0.363 2.55 0.832 3.665 1.417l-0.096-0.046c-0.017 0.019-0.031 0.037-0.047 0.052zM27.597 25.233c-1.133-0.627-2.447-1.163-3.826-1.54l-0.127-0.030c0.643-2.148 1.025-4.618 1.051-7.174l0-0.014h6.246c-0.123 3.352-1.366 6.392-3.363 8.78l0.019-0.023z"></path>
</symbol>
<symbol id="icon-Group-3-1" viewBox="0 0 33 32">
<path d="M30.93 23.698c-0.124-0.094-0.282-0.151-0.452-0.151-0.073 0-0.143 0.010-0.209 0.029l0.005-0.001-2.6 0.689c-0.404 0.107-0.709 0.507-0.709 0.931v3.263c-0.203-0.087-0.439-0.138-0.687-0.138-0.001 0-0.002 0-0.004 0h0c-0.898 0-1.627 0.651-1.627 1.452s0.73 1.453 1.627 1.453c0.898 0 1.628-0.652 1.628-1.453v-2.915l2.612-0.693c0.404-0.106 0.708-0.507 0.708-0.931v-0.92c0-0.004 0-0.009 0-0.014 0-0.244-0.114-0.461-0.291-0.601l-0.002-0.001zM26.275 30.29c-0.374 0-0.69-0.238-0.69-0.518s0.317-0.518 0.69-0.518c0.374 0 0.691 0.238 0.691 0.518s-0.317 0.518-0.691 0.518zM30.264 25.263l-2.36 0.626-0.001-0.69c0.004-0.014 0.012-0.026 0.022-0.035l0-0 2.36-0.626v0.69c-0.004 0.014-0.012 0.026-0.022 0.035l-0 0zM31.448 9.075c-0.083-0.139-0.233-0.232-0.405-0.232-0.259 0-0.47 0.21-0.47 0.47 0 0.067 0.014 0.131 0.040 0.189l-0.001-0.003c1.667 3.266 1.667 8.581 0 11.846-0.032 0.062-0.051 0.135-0.051 0.213 0 0.258 0.209 0.467 0.467 0.467 0.001 0 0.001 0 0.002 0h-0c0.17 0 0.335-0.094 0.418-0.256 0.87-1.703 1.348-3.957 1.348-6.347s-0.478-4.644-1.348-6.347z"></path>
<path d="M29.328 19.055c0.062 0.033 0.136 0.052 0.213 0.052 0.181 0 0.338-0.103 0.416-0.254l0.001-0.003c0.981-1.922 0.981-4.934 0-6.858-0.084-0.137-0.232-0.227-0.402-0.227-0.259 0-0.47 0.21-0.47 0.47 0 0.065 0.013 0.128 0.038 0.184l-0.001-0.003c0.845 1.658 0.845 4.353 0 6.010-0.032 0.062-0.051 0.135-0.051 0.212 0 0.181 0.103 0.338 0.253 0.415l0.003 0.001z"></path>
<path d="M24.978 7.261c-2.084-2.089-4.965-3.382-8.149-3.382-0.012 0-0.024 0-0.036 0h0.002c-3.091 0-5.998 1.201-8.184 3.382-4.51 4.5-4.51 11.824 0 16.325 2.096 2.086 4.985 3.377 8.175 3.38h0.001c2.28 0 4.526-0.671 6.422-1.933 0.127-0.085 0.209-0.228 0.209-0.389 0-0.097-0.029-0.187-0.080-0.261l0.001 0.002c-0.085-0.126-0.228-0.208-0.39-0.208-0.097 0-0.187 0.029-0.262 0.080l0.002-0.001c-4.197 2.794-9.839 2.235-13.414-1.33-4.146-4.136-4.146-10.866 0-15.002 1.916-1.92 4.564-3.107 7.49-3.107 0.011 0 0.021 0 0.032 0h-0.002c2.842 0 5.512 1.104 7.52 3.107 4.147 4.136 4.147 10.866 0 15.002-0.085 0.084-0.138 0.201-0.138 0.331s0.053 0.246 0.138 0.331l0 0c0.184 0.182 0.48 0.182 0.664 0 4.512-4.501 4.512-11.824 0-16.325z"></path>
<path d="M11.148 9.643c0.087-0.085 0.141-0.203 0.141-0.334 0-0.127-0.051-0.242-0.133-0.326l0 0c-0.085-0.087-0.204-0.141-0.335-0.141-0.127 0-0.243 0.051-0.327 0.133l0-0c-1.682 1.625-2.726 3.901-2.726 6.421 0 0.010 0 0.019 0 0.029v-0.002c0 4.965 4.050 9.005 9.028 9.005s9.029-4.040 9.029-9.006c0-4.965-4.050-9.005-9.029-9.005-1.59 0-3.154 0.418-4.522 1.21-0.14 0.083-0.233 0.233-0.233 0.404 0 0.258 0.209 0.468 0.468 0.468 0.087 0 0.168-0.024 0.237-0.065l-0.002 0.001c1.161-0.681 2.558-1.084 4.048-1.084 0.001 0 0.003 0 0.004 0h-0c4.462 0 8.091 3.62 8.091 8.070s-3.63 8.070-8.091 8.070c-4.461 0-8.090-3.62-8.090-8.070-0-0.008-0-0.016-0-0.025 0-2.258 0.936-4.298 2.441-5.752l0.002-0.002zM3.158 3.441l1.144 0.578 0.578 1.141c0.13 0.256 0.312 0.384 0.538 0.384h0.002c0.156 0 0.376-0.067 0.537-0.385l0.579-1.14 1.145-0.579c0.257-0.13 0.387-0.31 0.387-0.536 0-0.228-0.13-0.408-0.386-0.538l-1.144-0.578-0.58-1.138c-0.13-0.256-0.31-0.386-0.538-0.387h-0.001c-0.156 0-0.376 0.067-0.538 0.385l-0.579 1.142-1.142 0.578c-0.32 0.16-0.387 0.38-0.387 0.536 0 0.226 0.129 0.407 0.386 0.538zM4.862 2.554c0.089-0.046 0.16-0.117 0.205-0.204l0.001-0.003 0.35-0.69 0.351 0.69c0.045 0.089 0.117 0.161 0.206 0.206l0.692 0.35-0.693 0.35c-0.089 0.046-0.16 0.117-0.204 0.203l-0.001 0.003-0.351 0.69-0.35-0.69c-0.046-0.089-0.117-0.16-0.204-0.204l-0.003-0.001-0.692-0.35 0.692-0.35zM25.45 4.338h0.466c0.008 0 0.018 0.001 0.027 0.001 0.258 0 0.468-0.21 0.468-0.468s-0.21-0.468-0.468-0.468c-0.010 0-0.019 0-0.029 0.001l0.001-0h-0.467c-0.008-0.001-0.018-0.001-0.027-0.001-0.258 0-0.468 0.21-0.468 0.468s0.21 0.468 0.468 0.468c0.010 0 0.019-0 0.029-0.001l-0.001 0zM28.006 4.338h0.466c0.008 0 0.018 0.001 0.027 0.001 0.258 0 0.468-0.21 0.468-0.468s-0.21-0.468-0.468-0.468c-0.010 0-0.019 0-0.029 0.001l0.001-0h-0.466c-0.008-0.001-0.018-0.001-0.027-0.001-0.258 0-0.468 0.21-0.468 0.468s0.21 0.468 0.468 0.468c0.010 0 0.019-0 0.029-0.001l-0.001 0zM26.961 5.845c0 0 0.001 0 0.001 0 0.258 0 0.468-0.209 0.468-0.467v-0.465c0-0.259-0.21-0.469-0.469-0.469s-0.469 0.21-0.469 0.469v0 0.465c0 0.258 0.21 0.467 0.469 0.467zM26.961 3.295c0 0 0.001 0 0.001 0 0.258 0 0.468-0.21 0.468-0.468 0 0 0 0 0 0v0-0.465c0-0.259-0.21-0.469-0.469-0.469s-0.469 0.21-0.469 0.469v0 0.465c0 0.258 0.21 0.468 0.469 0.468zM8.141 26.507h-0.466c-0.008-0-0.018-0.001-0.027-0.001-0.258 0-0.468 0.21-0.468 0.468s0.21 0.468 0.468 0.468c0.010 0 0.019-0 0.029-0.001l-0.001 0h0.466c0.008 0 0.018 0.001 0.027 0.001 0.258 0 0.468-0.21 0.468-0.468s-0.21-0.468-0.468-0.468c-0.010 0-0.019 0-0.029 0.001l0.001-0zM5.584 26.507h-0.466c-0.008-0-0.018-0.001-0.027-0.001-0.258 0-0.468 0.21-0.468 0.468s0.21 0.468 0.468 0.468c0.010 0 0.019-0 0.029-0.001l-0.001 0h0.467c0.008 0 0.018 0.001 0.027 0.001 0.258 0 0.468-0.21 0.468-0.468s-0.21-0.468-0.468-0.468c-0.010 0-0.019 0-0.029 0.001l0.001-0zM6.63 24.998c-0 0-0.001 0-0.001 0-0.258 0-0.468 0.209-0.468 0.467v0.466c0 0.259 0.21 0.469 0.469 0.469s0.469-0.21 0.469-0.469v0-0.466c-0-0.258-0.21-0.467-0.468-0.467-0 0-0.001 0-0.001 0h0zM6.63 27.55c-0 0-0.001 0-0.001 0-0.258 0-0.468 0.209-0.468 0.467v0.464c0 0.259 0.21 0.469 0.469 0.469s0.469-0.21 0.469-0.469v0-0.464c-0-0.258-0.21-0.467-0.468-0.467-0 0-0.001 0-0.001 0h0z"></path>
<path d="M18.73 14.703c-0.929 0.171-1.657 0.898-1.657 1.656 0 0.347 0.15 0.662 0.421 0.888 0.264 0.219 0.623 0.336 1.018 0.336 0.126 0 0.256-0.012 0.389-0.037 0.928-0.171 1.655-0.898 1.655-1.656v-4.042c0-0.002 0-0.004 0-0.006 0-0.237-0.106-0.449-0.274-0.591l-0.001-0.001c-0.141-0.116-0.323-0.186-0.522-0.186-0.054 0-0.107 0.005-0.159 0.015l0.005-0.001-4.288 0.758c-0.442 0.078-0.789 0.478-0.789 0.912v3.938c-0.154-0.044-0.33-0.069-0.512-0.069-0.133 0-0.263 0.013-0.389 0.039l0.012-0.002c-0.93 0.171-1.658 0.898-1.658 1.656 0 0.347 0.15 0.662 0.421 0.888 0.265 0.22 0.624 0.336 1.018 0.336 0.126 0 0.257-0.012 0.389-0.037 0.93-0.17 1.657-0.898 1.657-1.656v-3.406l4.152-0.734v1.033c-0.154-0.044-0.33-0.069-0.512-0.069-0.133 0-0.263 0.013-0.388 0.039l0.012-0.002zM18.73 16.627c-0.312 0.058-0.534-0.014-0.637-0.099-0.050-0.038-0.082-0.097-0.082-0.164 0-0.001 0-0.003 0-0.004v0c0-0.271 0.38-0.644 0.89-0.738 0.065-0.013 0.14-0.020 0.216-0.021h0c0.198 0 0.341 0.056 0.418 0.12 0.058 0.048 0.083 0.1 0.083 0.169 0 0.27-0.38 0.643-0.888 0.737zM13.639 18.579c-0.312 0.058-0.534-0.014-0.636-0.099-0.051-0.038-0.083-0.097-0.083-0.164 0-0.001 0-0.003 0-0.004v0c0-0.271 0.381-0.643 0.89-0.738 0.078-0.014 0.152-0.021 0.218-0.021 0.198 0 0.342 0.056 0.418 0.12 0.058 0.048 0.082 0.1 0.082 0.169 0 0.27-0.38 0.643-0.89 0.737zM15.466 13.487v-0.719c0.004-0.004 0.008-0.007 0.013-0.009l0-0 4.139-0.733v0.727l-4.152 0.734zM2.978 9.499c0.023-0.054 0.036-0.116 0.036-0.181 0-0.259-0.21-0.47-0.47-0.47-0.17 0-0.318 0.090-0.401 0.225l-0.001 0.002c-0.87 1.704-1.348 3.958-1.348 6.347s0.479 4.645 1.348 6.347c0.082 0.143 0.234 0.238 0.408 0.238 0.259 0 0.469-0.21 0.469-0.469 0-0.070-0.015-0.137-0.043-0.196l0.001 0.003c-1.666-3.266-1.666-8.58 0-11.846z"></path>
<path d="M4.261 11.788c-0.062-0.032-0.135-0.051-0.212-0.051-0.181 0-0.339 0.103-0.417 0.254l-0.001 0.003c-0.979 1.922-0.979 4.934 0 6.856 0.081 0.146 0.235 0.242 0.41 0.242 0.259 0 0.469-0.21 0.469-0.469 0-0.071-0.016-0.139-0.045-0.2l0.001 0.003c-0.844-1.656-0.844-4.352 0-6.010 0.032-0.062 0.051-0.135 0.051-0.212 0-0.181-0.103-0.338-0.254-0.416l-0.003-0.001z"></path>
</symbol>
<symbol id="icon-Group-53-1" viewBox="0 0 50 32">
<path fill="#fafafa" style="fill: var(--color1, #fafafa)" d="M43.615 23.868v2.047c-0.003 2.261-1.837 4.094-4.098 4.094-0.002 0-0.003 0-0.005 0h-33.858c-0.002 0-0.004 0-0.006 0-2.262 0-4.096-1.832-4.098-4.093v-19.444c0.003-2.261 1.837-4.094 4.098-4.094 0.002 0 0.003 0 0.005 0h33.858c0.002 0 0.004 0 0.006 0 2.262 0 4.096 1.832 4.098 4.093v2.047h2.053c1.132 0 2.052 0.917 2.052 2.047v11.257c0 1.13-0.919 2.047-2.052 2.047h-2.053z"></path>
<path fill="#000" style="fill: var(--color2, #000)" d="M7.705 25.403c0 0 0 0 0 0-0.848 0-1.536-0.687-1.538-1.535v-15.35c0-0.85 0.689-1.539 1.539-1.539s1.539 0.689 1.539 1.539v0 15.35c-0.002 0.848-0.69 1.535-1.538 1.535 0 0 0 0 0 0v0zM13.861 25.403c0 0 0 0 0 0-0.848 0-1.536-0.687-1.538-1.535v-15.35c0-0.85 0.689-1.538 1.538-1.538s1.538 0.689 1.538 1.538v0 15.35c-0.002 0.848-0.69 1.535-1.538 1.535 0 0 0 0 0 0v0zM20.017 25.403c0 0 0 0 0 0-0.848 0-1.536-0.687-1.538-1.535v-15.35c0-0.85 0.689-1.538 1.538-1.538s1.538 0.689 1.538 1.538v0 15.35c-0.002 0.848-0.69 1.535-1.538 1.535 0 0 0 0 0 0v0zM26.174 25.403c0 0 0 0 0 0-0.848 0-1.536-0.687-1.538-1.535v-15.35c0-0.85 0.689-1.539 1.539-1.539s1.539 0.689 1.539 1.539v0 15.35c-0.002 0.848-0.69 1.535-1.538 1.535 0 0 0 0 0 0v0zM32.33 25.403c0 0 0 0 0 0-0.848 0-1.536-0.687-1.538-1.535v-15.35c0-0.85 0.689-1.539 1.539-1.539s1.539 0.689 1.539 1.539v0 15.35c-0.002 0.848-0.69 1.535-1.538 1.535 0 0 0 0 0 0v0zM38.486 25.403c0 0 0 0 0 0-0.848 0-1.536-0.687-1.538-1.535v-15.35c0-0.85 0.689-1.539 1.539-1.539s1.539 0.689 1.539 1.539v0 15.35c-0.002 0.848-0.69 1.535-1.538 1.535-0 0-0.001 0-0.001 0h0z"></path>
<path fill="#000" style="fill: var(--color2, #000)" d="M39.511 31.545h-33.858c-3.111 0-5.643-2.523-5.643-5.63v-19.444c0-3.105 2.532-5.628 5.643-5.628h33.858c3.111 0 5.643 2.523 5.643 5.628v0.512h0.495c0 0 0.001 0 0.001 0 1.98 0 3.585 1.602 3.59 3.581v11.257c-0.005 1.979-1.61 3.582-3.59 3.582-0 0-0.001 0-0.001 0h-0.495v0.512c0 3.105-2.532 5.628-5.643 5.628zM5.653 3.914c0 0 0 0 0 0-1.414 0-2.561 1.144-2.565 2.557v19.444c0 1.41 1.151 2.56 2.565 2.56h33.858c0 0 0 0 0 0 1.415 0 2.562-1.146 2.565-2.56v-2.047c0-0.847 0.689-1.535 1.538-1.535h2.034c0.283 0 0.513-0.229 0.513-0.512v-11.257c0 0 0 0 0 0 0-0.283-0.229-0.512-0.512-0.512-0 0-0.001 0-0.001 0h-2.033c0 0 0 0 0 0-0.848 0-1.536-0.687-1.538-1.535v-2.047c-0.004-1.414-1.151-2.559-2.565-2.559-0 0-0.001 0-0.001 0h-33.858z"></path>
</symbol>
<symbol id="icon-Group-57-1" viewBox="0 0 32 32">
<path d="M17.073 31.505h-2.915c-0 0-0 0-0 0-0.993 0-1.812-0.743-1.931-1.703l-0.001-0.010-0.311-2.434c-0.699-0.228-1.29-0.478-1.856-0.771l0.069 0.032-1.943 1.506c-0.788 0.609-1.898 0.539-2.582-0.164l-2.048-2.043c-0.699-0.676-0.769-1.783-0.159-2.568l1.51-1.939c-0.263-0.497-0.513-1.087-0.716-1.698l-0.024-0.084-2.445-0.31c-0.969-0.122-1.711-0.939-1.713-1.931v-2.907c0-0.982 0.738-1.811 1.717-1.928l2.44-0.31c0.202-0.619 0.45-1.216 0.741-1.783l-1.509-1.94c-0.611-0.786-0.539-1.894 0.165-2.576l2.049-2.043c0.677-0.697 1.789-0.766 2.575-0.158l1.943 1.508c0.568-0.29 1.167-0.538 1.788-0.738l0.311-2.439c0.123-0.968 0.941-1.708 1.932-1.708h2.914c0.984 0 1.815 0.736 1.933 1.712l0.311 2.434c0.621 0.201 1.22 0.449 1.788 0.738l1.943-1.506c0.79-0.609 1.898-0.539 2.583 0.165l2.048 2.043c0.699 0.676 0.77 1.783 0.159 2.568l-1.51 1.94c0.291 0.567 0.54 1.164 0.74 1.783l2.446 0.311c0.968 0.121 1.709 0.938 1.712 1.928v2.907c0 0.982-0.738 1.811-1.717 1.928l-2.441 0.311c-0.229 0.697-0.479 1.287-0.772 1.851l0.032-0.068 1.51 1.938c0.259 0.325 0.416 0.742 0.416 1.196 0 0.541-0.222 1.029-0.581 1.379l-0 0-2.049 2.043c-0.677 0.697-1.789 0.768-2.574 0.158l-1.945-1.506c-0.568 0.29-1.167 0.539-1.787 0.738l-0.311 2.439c-0.123 0.968-0.942 1.709-1.934 1.709-0 0-0.001 0-0.001 0h0zM10.061 25.2c0.108 0 0.219 0.027 0.318 0.082 0.716 0.4 1.493 0.721 2.308 0.955 0.247 0.072 0.431 0.281 0.465 0.538l0 0.003 0.364 2.854c0.039 0.325 0.322 0.576 0.642 0.576h2.914c0.321 0 0.603-0.25 0.641-0.57l0.365-2.86c0.034-0.26 0.218-0.469 0.461-0.54l0.005-0.001c0.815-0.233 1.591-0.555 2.308-0.955 0.091-0.052 0.2-0.082 0.316-0.082 0.151 0 0.29 0.051 0.4 0.138l-0.001-0.001 2.277 1.764c0.109 0.088 0.249 0.142 0.402 0.142 0.176 0 0.335-0.071 0.451-0.185l-0 0 2.062-2.057c0.118-0.116 0.191-0.278 0.191-0.456 0-0.152-0.053-0.291-0.141-0.401l-1.768-2.27c-0.085-0.108-0.137-0.247-0.137-0.397 0-0.116 0.030-0.224 0.084-0.318l-0.002 0.003c0.4-0.715 0.724-1.49 0.958-2.302 0.073-0.247 0.282-0.43 0.538-0.464l0.003-0 2.862-0.363c0.323-0.041 0.572-0.312 0.578-0.642v-2.907c-0.005-0.328-0.25-0.598-0.568-0.64l-0.003-0-2.867-0.364c-0.26-0.034-0.47-0.217-0.541-0.46l-0.001-0.005c-0.234-0.812-0.556-1.587-0.958-2.302-0.052-0.091-0.083-0.2-0.083-0.316 0-0.151 0.052-0.289 0.138-0.399l-0.001 0.001 1.769-2.27c0.204-0.261 0.187-0.627-0.043-0.848l-2.062-2.057c-0.116-0.118-0.278-0.191-0.457-0.191-0.153 0-0.293 0.053-0.403 0.142l0.001-0.001-2.276 1.764c-0.109 0.085-0.249 0.137-0.4 0.137-0.116 0-0.226-0.030-0.32-0.084l0.003 0.002c-0.661-0.375-1.426-0.7-2.23-0.935l-0.077-0.019c-0.248-0.072-0.432-0.281-0.466-0.538l-0-0.003-0.364-2.854c-0.042-0.324-0.313-0.572-0.643-0.578h-2.916c-0.328 0.004-0.598 0.249-0.64 0.566l-0 0.003-0.366 2.86c-0.034 0.26-0.218 0.469-0.461 0.541l-0.005 0.001c-0.817 0.234-1.594 0.555-2.308 0.954-0.092 0.052-0.201 0.083-0.318 0.083-0.151 0-0.29-0.051-0.4-0.137l0.001 0.001-2.276-1.765c-0.109-0.088-0.249-0.142-0.401-0.142-0.175 0-0.334 0.071-0.449 0.185l0-0-2.063 2.057c-0.118 0.116-0.191 0.278-0.191 0.456 0 0.152 0.053 0.291 0.141 0.401l1.768 2.27c0.085 0.108 0.137 0.247 0.137 0.398 0 0.116-0.031 0.225-0.084 0.319l0.002-0.003c-0.377 0.659-0.703 1.423-0.938 2.225l-0.019 0.076c-0.073 0.247-0.282 0.431-0.539 0.464l-0.003 0-2.862 0.363c-0.324 0.040-0.572 0.311-0.578 0.641v2.906c0 0.32 0.251 0.602 0.571 0.64l2.867 0.364c0.258 0.032 0.471 0.215 0.542 0.464 0.234 0.812 0.557 1.587 0.958 2.302 0.052 0.091 0.083 0.2 0.083 0.316 0 0.151-0.052 0.289-0.138 0.399l0.001-0.001-1.769 2.271c-0.204 0.261-0.186 0.628 0.043 0.848l2.062 2.057c0.228 0.235 0.593 0.253 0.859 0.051l2.277-1.764c0.11-0.084 0.249-0.135 0.4-0.136h0z"></path>
<path d="M15.616 22.423c-3.586 0-6.504-2.91-6.504-6.487s2.917-6.487 6.504-6.487c3.586 0 6.505 2.911 6.505 6.487s-2.918 6.487-6.505 6.487zM15.616 10.747c-2.87 0-5.203 2.327-5.203 5.19 0 2.861 2.334 5.189 5.203 5.189s5.203-2.328 5.203-5.19-2.334-5.19-5.204-5.19z"></path>
</symbol>
<symbol id="icon-Group-56-1" viewBox="0 0 42 32">
<path d="M37.534 0.741h-33.548c0 0 0 0 0 0-2.134 0-3.865 1.727-3.871 3.86v23.166c0.006 2.133 1.737 3.861 3.871 3.861 0 0 0 0 0 0h33.548c0 0 0 0 0 0 2.134 0 3.865-1.727 3.871-3.86v-23.165c-0.006-2.133-1.737-3.861-3.871-3.861 0 0 0 0 0 0v0zM37.534 3.316c0.175 0 0.343 0.036 0.495 0.099l-17.271 14.929-17.268-14.929c0.153-0.063 0.32-0.099 0.495-0.099h33.548zM37.534 29.055h-33.548c0 0 0 0 0 0-0.712 0-1.289-0.576-1.29-1.287v-21.633l17.219 14.884c0.225 0.196 0.521 0.316 0.845 0.316s0.62-0.119 0.847-0.317l-0.002 0.001 17.219-14.885v21.634c-0.002 0.711-0.579 1.287-1.29 1.287 0 0 0 0 0 0v0z"></path>
</symbol>
<symbol id="icon-Group-67-1" viewBox="0 0 32 32">
<path fill="#cfcfcf" style="fill: var(--color1, #cfcfcf)" opacity="0.5" d="M17.059 15.679c0 0.602-0.488 1.091-1.091 1.091s-1.091-0.488-1.091-1.091c0-0.602 0.488-1.091 1.091-1.091s1.091 0.488 1.091 1.091z"></path>
<path fill="#eee" style="fill: var(--color2, #eee)" d="M17.29 15.679c0 0.73-0.592 1.322-1.322 1.322s-1.322-0.592-1.322-1.322c0-0.73 0.592-1.322 1.322-1.322s1.322 0.592 1.322 1.322zM14.913 15.679c0 0.583 0.473 1.056 1.056 1.056s1.056-0.473 1.056-1.056c0-0.583-0.473-1.056-1.056-1.056s-1.056 0.473-1.056 1.056z"></path>
<path fill="#1617db" style="fill: var(--color3, #1617db)" d="M16.486 15.679l-0.775 0.448v-0.895l0.775 0.448z"></path>
</symbol>
<symbol id="icon-Group-66-1" viewBox="0 0 32 32">
<path fill="#cfcfcf" style="fill: var(--color1, #cfcfcf)" opacity="0.5" d="M28.734 15.929c0 6.854-5.556 12.41-12.41 12.41s-12.41-5.556-12.41-12.41c0-6.854 5.556-12.41 12.41-12.41s12.41 5.556 12.41 12.41z"></path>
<path fill="#eee" style="fill: var(--color2, #eee)" d="M31.362 15.929c0 8.305-6.733 15.038-15.039 15.038s-15.038-6.733-15.038-15.038c0-8.306 6.733-15.039 15.038-15.039s15.039 6.733 15.039 15.039zM4.311 15.929c0 6.634 5.378 12.012 12.012 12.012s12.013-5.378 12.013-12.012c0-6.634-5.378-12.013-12.013-12.013s-12.012 5.378-12.012 12.013z"></path>
<path fill="none" stroke="#cdcdcd" style="stroke: var(--color3, #cdcdcd)" stroke-linejoin="miter" stroke-linecap="butt" stroke-miterlimit="4" stroke-width="0.8649" d="M31.362 15.929c0 8.305-6.733 15.038-15.039 15.038s-15.038-6.733-15.038-15.038c0-8.306 6.733-15.039 15.038-15.039s15.039 6.733 15.039 15.039zM4.311 15.929c0 6.634 5.378 12.012 12.012 12.012s12.013-5.378 12.013-12.012c0-6.634-5.378-12.013-12.013-12.013s-12.012 5.378-12.012 12.013z"></path>
<path fill="#1617db" style="fill: var(--color4, #1617db)" d="M22.205 15.929l-8.823 5.094v-10.188l8.823 5.094z"></path>
</symbol>
<symbol id="icon-Group-124f" viewBox="0 0 18 32">
<path d="M18.11 0.774h-4.571c-4.208 0-7.619 3.411-7.619 7.619v0 4.571h-4.571v6.095h4.571v12.19h6.095v-12.19h4.571l1.524-6.095h-6.095v-4.571c0-0.842 0.682-1.524 1.524-1.524v0h4.571v-6.095z"></path>
</symbol>
<symbol id="icon-Group-123in" viewBox="0 0 32 32">
<path fill="#fff" style="fill: var(--color1, #fff)" stroke-linejoin="round" stroke-linecap="round" stroke-miterlimit="4" stroke-width="2.7826" stroke="#000" d="M23.606 2.097h-13.913c-3.842 0-6.957 3.115-6.957 6.957v0 13.913c0 3.842 3.115 6.957 6.957 6.957v0h13.913c3.842 0 6.957-3.115 6.957-6.957v0-13.913c0-3.842-3.115-6.957-6.957-6.957v0z"></path>
<path fill="#fff" style="fill: var(--color1, #fff)" stroke-linejoin="round" stroke-linecap="round" stroke-miterlimit="4" stroke-width="2.7826" stroke="#000" d="M22.214 15.133c0.044 0.262 0.069 0.563 0.069 0.871 0 3.074-2.492 5.565-5.565 5.565-2.805 0-5.125-2.075-5.509-4.773l-0.003-0.030c-0.033-0.229-0.053-0.494-0.053-0.763 0-3.074 2.492-5.565 5.565-5.565 2.766 0 5.061 2.018 5.492 4.662l0.004 0.032z"></path>
<path stroke-linejoin="round" stroke-linecap="round" stroke-miterlimit="4" stroke-width="2.7826" d="M24.302 8.358h0.014"></path>
</symbol>
<symbol id="icon-Group-122tv" viewBox="0 0 39 32">
<path d="M37.135 0.872c-1.516 1.082-3.272 1.96-5.158 2.542l-0.13 0.035c-1.391-1.593-3.425-2.594-5.693-2.594-4.167 0-7.545 3.378-7.545 7.545 0 0.036 0 0.071 0.001 0.107l-0-0.005v1.684c-0.139 0.004-0.302 0.006-0.465 0.006-6.051 0-11.402-2.993-14.655-7.58l-0.038-0.056s-6.737 15.158 8.421 21.895c-3.085 2.119-6.9 3.384-11.010 3.384-0.274 0-0.547-0.006-0.818-0.017l0.039 0.001c15.158 8.421 33.684 0 33.684-19.368-0.002-0.47-0.047-0.938-0.135-1.398 1.671-1.648 2.897-3.743 3.484-6.091l0.019-0.090z"></path>
</symbol>
</defs>
</svg>
